PathFileType	4	(X/Y/Z)	 C:\Users\z3550257\Dropbox\University\GitHubClones\TheiaOpensim\ExampleData\P01_procesed_with_single_calib\C3D_data\walkPref_0_Theia.trc
DataRate	CameraRate	NumFrames	NumMarkers	Units	OrigDataRate	OrigDataStartFrame	OrigNumFrames
100	100	10	40	m	100	864	3452
Frame#	Time	PELVIS1			LHIP			LKNEE			LANK			LMTP			RHIP			RKNEE			RANK			RMTP			CVJ			TORSO			LSHO			LELB			LWRIST			RSHO			RELB			RWRIST			LCALC			RCALC			LTOE			RTOE			LHAND			RHAND			HEAD_CENTRE			TORSO_LOW			LTHI			RTHI			LSHA			RSHA			L_LCALC			R_LCALC			LUA			RUA			LFRM			RFRM			HEAD_L			HEAD_R			TORSO_L			TORSO_R			PELVIS2			
		X1	Y1	Z1	X2	Y2	Z2	X3	Y3	Z3	X4	Y4	Z4	X5	Y5	Z5	X6	Y6	Z6	X7	Y7	Z7	X8	Y8	Z8	X9	Y9	Z9	X10	Y10	Z10	X11	Y11	Z11	X12	Y12	Z12	X13	Y13	Z13	X14	Y14	Z14	X15	Y15	Z15	X16	Y16	Z16	X17	Y17	Z17	X18	Y18	Z18	X19	Y19	Z19	X20	Y20	Z20	X21	Y21	Z21	X22	Y22	Z22	X23	Y23	Z23	X24	Y24	Z24	X25	Y25	Z25	X26	Y26	Z26	X27	Y27	Z27	X28	Y28	Z28	X29	Y29	Z29	X30	Y30	Z30	X31	Y31	Z31	X32	Y32	Z32	X33	Y33	Z33	X34	Y34	Z34	X35	Y35	Z35	X36	Y36	Z36	X37	Y37	Z37	X38	Y38	Z38	X39	Y39	Z39	X40	Y40	Z40	
864	8.6400	0.557273	1.039670	-0.236316	0.574054	0.951560	-0.332854	0.518965	0.570659	-0.321239	0.429530	0.179718	-0.308843	0.577110	0.115794	-0.304256	0.579168	0.951088	-0.141244	0.774096	0.622565	-0.123848	0.762325	0.219768	-0.126716	0.907378	0.153841	-0.113861	0.593234	1.670743	-0.279562	0.596010	1.558351	-0.272046	0.580040	1.456959	-0.434091	0.602348	1.152346	-0.495539	0.722173	0.915155	-0.514111	0.563163	1.476036	-0.097850	0.466364	1.190999	-0.038913	0.454912	0.936057	0.033093	0.372046	0.109442	-0.301999	0.704175	0.151118	-0.142538	0.627465	0.116102	-0.304693	0.955945	0.152208	-0.107198	0.756431	0.843466	-0.524557	0.434652	0.862415	0.056894	0.639947	1.694928	-0.277872	0.583782	1.308256	-0.258577	0.530997	0.753563	-0.400413	0.670943	0.777194	-0.057859	0.462080	0.376595	-0.378876	0.759440	0.422427	-0.060865	0.419566	0.126180	-0.343979	0.745888	0.166965	-0.092907	0.628484	1.320645	-0.450588	0.555744	1.336005	-0.058633	0.687250	1.059455	-0.482691	0.497635	1.069641	-0.021719	0.596477	1.794562	-0.356429	0.586556	1.796878	-0.206775	0.606357	1.549800	-0.421443	0.585663	1.566903	-0.122650	0.576611	0.951324	-0.237049	
865	8.6500	0.556014	1.037766	-0.235973	0.572372	0.950119	-0.333004	0.511099	0.570172	-0.321521	0.418664	0.179925	-0.309055	0.565831	0.115118	-0.303691	0.578552	0.948782	-0.141430	0.770607	0.618489	-0.125680	0.785282	0.215849	-0.124064	0.934339	0.159677	-0.111698	0.591616	1.669611	-0.278305	0.595088	1.557036	-0.271258	0.579450	1.456321	-0.433826	0.604992	1.152044	-0.495657	0.730284	0.917619	-0.513656	0.562106	1.474810	-0.097708	0.462504	1.190665	-0.039056	0.445648	0.936039	0.033037	0.360725	0.110003	-0.302420	0.731717	0.143477	-0.139283	0.616188	0.115161	-0.303887	0.982993	0.161031	-0.105308	0.766581	0.846903	-0.523270	0.422293	0.863097	0.056210	0.638151	1.694133	-0.276599	0.583255	1.306900	-0.258204	0.525938	0.752900	-0.400599	0.669413	0.774019	-0.058843	0.452553	0.376575	-0.379089	0.769474	0.418667	-0.060430	0.408547	0.126411	-0.344185	0.772525	0.162286	-0.089945	0.629373	1.320574	-0.450607	0.553165	1.334976	-0.058077	0.692268	1.061324	-0.483062	0.491183	1.068687	-0.021820	0.593916	1.793571	-0.354973	0.584053	1.795571	-0.205312	0.605713	1.548738	-0.420649	0.584463	1.565335	-0.121866	0.575462	0.949451	-0.237217	
866	8.6600	0.554715	1.035820	-0.235729	0.570616	0.948622	-0.333242	0.503328	0.569702	-0.321775	0.407769	0.180200	-0.309261	0.554497	0.114480	-0.303090	0.577881	0.946440	-0.141712	0.767010	0.614382	-0.127376	0.807160	0.213550	-0.121474	0.959507	0.166886	-0.109960	0.590030	1.668308	-0.277040	0.594179	1.555556	-0.270475	0.578887	1.455490	-0.433431	0.607467	1.151583	-0.495741	0.737932	0.919918	-0.512990	0.561147	1.473505	-0.097470	0.459103	1.190182	-0.039005	0.437373	0.935901	0.033015	0.349361	0.110648	-0.302864	0.758123	0.137880	-0.135969	0.604856	0.114226	-0.303030	1.008087	0.171024	-0.103963	0.776324	0.850252	-0.521500	0.411200	0.863653	0.055477	0.636379	1.693170	-0.275279	0.582687	1.305382	-0.257817	0.520937	0.752185	-0.400821	0.668032	0.770989	-0.059778	0.443103	0.376596	-0.379295	0.779126	0.415766	-0.059939	0.397497	0.126719	-0.344398	0.798045	0.159500	-0.087023	0.630168	1.320277	-0.450441	0.550874	1.333861	-0.057489	0.696957	1.063020	-0.483341	0.485241	1.067595	-0.022162	0.591429	1.792411	-0.353495	0.581516	1.794076	-0.203834	0.605049	1.547497	-0.419863	0.583308	1.563614	-0.121088	0.574249	0.947531	-0.237477	
867	8.6700	0.553373	1.033887	-0.235564	0.568829	0.947113	-0.333528	0.495731	0.569278	-0.321984	0.396907	0.180582	-0.309474	0.543171	0.113911	-0.302581	0.577119	0.944134	-0.142048	0.763584	0.610502	-0.128780	0.827557	0.212819	-0.119070	0.982499	0.175120	-0.108812	0.588471	1.666814	-0.275782	0.593277	1.553931	-0.269697	0.578351	1.454463	-0.432826	0.609764	1.150966	-0.495761	0.745116	0.922051	-0.512119	0.560264	1.472157	-0.097078	0.456086	1.189569	-0.038834	0.430030	0.935654	0.033038	0.338018	0.111415	-0.303340	0.782840	0.134325	-0.132784	0.593530	0.113332	-0.302278	1.030859	0.181828	-0.103320	0.785667	0.853516	-0.519371	0.401419	0.864051	0.054744	0.634625	1.692026	-0.273928	0.582061	1.303726	-0.257390	0.516050	0.751460	-0.401050	0.666868	0.768255	-0.060568	0.433796	0.376697	-0.379488	0.788301	0.413786	-0.059376	0.386459	0.127161	-0.344647	0.821943	0.158501	-0.084313	0.630870	1.319752	-0.450041	0.548809	1.332697	-0.056792	0.701321	1.064538	-0.483514	0.479797	1.066404	-0.022679	0.589001	1.791055	-0.352021	0.578918	1.792379	-0.202370	0.604374	1.546086	-0.419079	0.582179	1.561777	-0.120314	0.572974	0.945623	-0.237788	
868	8.6800	0.552010	1.032003	-0.235436	0.567064	0.945623	-0.333811	0.488402	0.568910	-0.322117	0.386120	0.181102	-0.309696	0.531895	0.113432	-0.302265	0.576243	0.941900	-0.142382	0.760558	0.607025	-0.129782	0.846057	0.213402	-0.117044	1.002935	0.183833	-0.108351	0.586946	1.665135	-0.274526	0.592388	1.552200	-0.268890	0.577835	1.453267	-0.431960	0.611891	1.150219	-0.495670	0.751870	0.924042	-0.511060	0.559427	1.470793	-0.096475	0.453355	1.188843	-0.038614	0.423519	0.935302	0.033089	0.326738	0.112338	-0.303839	0.805304	0.132585	-0.129999	0.582251	0.112508	-0.301763	1.050947	0.192911	-0.103424	0.794601	0.856716	-0.517048	0.392907	0.864263	0.054047	0.632897	1.690704	-0.272550	0.581383	1.301971	-0.256886	0.511328	0.750753	-0.401241	0.665909	0.765864	-0.061144	0.424683	0.376913	-0.379652	0.796811	0.412627	-0.058792	0.375450	0.127778	-0.344944	0.843674	0.158981	-0.082042	0.631487	1.319032	-0.449383	0.546887	1.331512	-0.055921	0.705374	1.065887	-0.483519	0.474833	1.065162	-0.023272	0.586634	1.789501	-0.350564	0.576280	1.790498	-0.200929	0.603712	1.544536	-0.418265	0.581063	1.559864	-0.119515	0.571653	0.943761	-0.238096	
869	8.6900	0.550662	1.030180	-0.235290	0.565376	0.944161	-0.334031	0.481432	0.568589	-0.322145	0.375423	0.181780	-0.309917	0.520686	0.113055	-0.302197	0.575255	0.939746	-0.142651	0.758093	0.604037	-0.130348	0.862256	0.214876	-0.115602	1.020478	0.192367	-0.108572	0.585473	1.663306	-0.273250	0.591529	1.550406	-0.268005	0.577337	1.451949	-0.430828	0.613872	1.149379	-0.495414	0.758244	0.925929	-0.509831	0.558600	1.469434	-0.095624	0.450817	1.188020	-0.038391	0.417749	0.934839	0.033143	0.315535	0.113439	-0.304331	0.824990	0.132238	-0.127902	0.571034	0.111775	-0.301561	1.068046	0.203623	-0.104196	0.803108	0.859868	-0.514689	0.385573	0.864266	0.053395	0.631218	1.689233	-0.271143	0.580674	1.300157	-0.256266	0.506813	0.750078	-0.401343	0.665089	0.763771	-0.061471	0.415793	0.377267	-0.379760	0.804410	0.412059	-0.058283	0.364470	0.128593	-0.345278	0.862709	0.160467	-0.080438	0.632039	1.318171	-0.448477	0.545041	1.330321	-0.054851	0.709136	1.067075	-0.483265	0.470344	1.063910	-0.023819	0.584345	1.787771	-0.349121	0.573670	1.788482	-0.199507	0.603094	1.542898	-0.417369	0.579964	1.557913	-0.118641	0.570315	0.941953	-0.238341	
870	8.7000	0.549375	1.028411	-0.235069	0.563816	0.942713	-0.334128	0.474899	0.568289	-0.322042	0.364812	0.182622	-0.310127	0.509540	0.112783	-0.302364	0.574184	0.937668	-0.142790	0.756279	0.601552	-0.130528	0.875801	0.216733	-0.114906	1.034870	0.200053	-0.109377	0.584071	1.661384	-0.271930	0.590724	1.548596	-0.266990	0.576860	1.450561	-0.429462	0.615740	1.148478	-0.494940	0.764284	0.927734	-0.508449	0.557757	1.468083	-0.094533	0.448417	1.187106	-0.038169	0.412673	0.934241	0.033180	0.304400	0.114725	-0.304768	0.841461	0.132742	-0.126721	0.559872	0.111135	-0.301667	1.081940	0.213280	-0.105458	0.811170	0.862973	-0.512397	0.379315	0.864035	0.052773	0.629615	1.687656	-0.269703	0.579961	1.298332	-0.255504	0.502542	0.749426	-0.401306	0.664341	0.761885	-0.061558	0.407138	0.377758	-0.379789	0.810855	0.411792	-0.057966	0.353503	0.129599	-0.345618	0.878596	0.162399	-0.079663	0.632554	1.317230	-0.447357	0.543237	1.329116	-0.053610	0.712623	1.068105	-0.482663	0.466349	1.062670	-0.024207	0.582154	1.785915	-0.347678	0.571167	1.786396	-0.198084	0.602547	1.541233	-0.416341	0.578902	1.555958	-0.117639	0.569000	0.940191	-0.238459	
871	8.7100	0.548185	1.026683	-0.234726	0.562421	0.941259	-0.334050	0.468848	0.567972	-0.321799	0.354269	0.183619	-0.310312	0.498435	0.112601	-0.302704	0.573078	0.935663	-0.142744	0.755141	0.599542	-0.130443	0.886417	0.218465	-0.115025	1.045950	0.206316	-0.110607	0.582753	1.659436	-0.270548	0.589999	1.546816	-0.265816	0.576420	1.449149	-0.427919	0.617516	1.147540	-0.494212	0.770014	0.929469	-0.506927	0.556883	1.466728	-0.093255	0.446151	1.186097	-0.037916	0.408305	0.933475	0.033197	0.293313	0.116194	-0.305106	0.854396	0.133533	-0.126568	0.548744	0.110566	-0.302014	1.092522	0.221250	-0.106988	0.818765	0.866015	-0.510197	0.374056	0.863540	0.052140	0.628105	1.686032	-0.268227	0.579261	1.296540	-0.254590	0.498544	0.748778	-0.401100	0.663632	0.760117	-0.061449	0.398725	0.378370	-0.379726	0.815952	0.411542	-0.057943	0.342534	0.130767	-0.345922	0.890998	0.164226	-0.079779	0.633062	1.316256	-0.446073	0.541493	1.327869	-0.052283	0.715849	1.068979	-0.481660	0.462895	1.061441	-0.024356	0.580075	1.784003	-0.346217	0.568831	1.784310	-0.196641	0.602083	1.539599	-0.415153	0.577916	1.554033	-0.116480	0.567750	0.938461	-0.238397	
872	8.7200	0.547113	1.024993	-0.234235	0.561206	0.939778	-0.333758	0.463287	0.567609	-0.321419	0.343790	0.184753	-0.310468	0.487348	0.112467	-0.303122	0.571992	0.933747	-0.142472	0.754651	0.597962	-0.130254	0.893918	0.219653	-0.115925	1.053650	0.210735	-0.112081	0.581518	1.657526	-0.269103	0.589374	1.545111	-0.264487	0.576044	1.447750	-0.426264	0.619197	1.146577	-0.493228	0.775421	0.931127	-0.505273	0.555989	1.465348	-0.091881	0.444069	1.184984	-0.037577	0.404704	0.932502	0.033209	0.282253	0.117848	-0.305316	0.863594	0.134124	-0.127410	0.537627	0.110022	-0.302490	1.099787	0.227031	-0.108580	0.825859	0.868960	-0.508056	0.369761	0.862755	0.051443	0.626693	1.684420	-0.266716	0.578586	1.294826	-0.253533	0.494847	0.748111	-0.400710	0.662980	0.758412	-0.061207	0.390568	0.379074	-0.379571	0.819587	0.411100	-0.058278	0.331557	0.132063	-0.346155	0.899711	0.165494	-0.080729	0.633581	1.315280	-0.444675	0.539869	1.326546	-0.050987	0.718815	1.069706	-0.480280	0.460039	1.060202	-0.024228	0.578113	1.782102	-0.344729	0.566685	1.782284	-0.195165	0.601700	1.538045	-0.413811	0.577047	1.552178	-0.115163	0.566599	0.936762	-0.238115	
873	8.7300	0.546167	1.023353	-0.233583	0.560166	0.938266	-0.333229	0.458202	0.567187	-0.320916	0.333390	0.186015	-0.310594	0.476257	0.112321	-0.303527	0.570976	0.931953	-0.141955	0.754737	0.596773	-0.130125	0.898218	0.220022	-0.117482	1.057993	0.213082	-0.113652	0.580358	1.655706	-0.267608	0.588854	1.543523	-0.263034	0.575762	1.446392	-0.424555	0.620749	1.145597	-0.492022	0.780461	0.932690	-0.503493	0.555101	1.463929	-0.090512	0.442251	1.183759	-0.037096	0.401942	0.931300	0.033237	0.271208	0.119704	-0.305401	0.868975	0.134169	-0.129092	0.526503	0.109440	-0.302979	1.103811	0.230309	-0.110096	0.832401	0.871758	-0.505915	0.366428	0.861660	0.050638	0.625368	1.682875	-0.265180	0.577943	1.293232	-0.252353	0.491480	0.747410	-0.400141	0.662438	0.756767	-0.060902	0.382696	0.379842	-0.379340	0.821723	0.410353	-0.058987	0.320585	0.133471	-0.346304	0.904672	0.165904	-0.082365	0.634113	1.314312	-0.443211	0.538449	1.325121	-0.049838	0.721516	1.070310	-0.478627	0.457833	1.058924	-0.023835	0.576257	1.780275	-0.343215	0.564705	1.780361	-0.193660	0.601388	1.536605	-0.412348	0.576321	1.550442	-0.113720	0.565571	0.935109	-0.237592	
